# xmcd
#
# Track frame offsets:
# 150
# 12209
# 34564
# 51097
# 67397
# 81710
# 98742
# 118450
# 141230
# 152429
# 168125
# 189399
# 201938
# 217700
#
# Disc length: 3099 seconds
#
#
# Revision: 2
# Processed by: cddbd v1.5.2PL0 Copyright (c) Steve Scherf et al.
# Submitted via: FreeRIP 2.951 
#
DISCID=c20c190e
DTITLE=Mathilda - supersexy rational
DYEAR=2005
DGENRE=Pop
TTITLE0=Butterfahrt
TTITLE1=Ein Tag
TTITLE2=philosophenkongress
TTITLE3=Frag nicht
TTITLE4=Herbst
TTITLE5=Straßenbahn
TTITLE6=Fünf Finger
TTITLE7=So viel Leben
TTITLE8=Ich Hund
TTITLE9=Audrey Hepburn
TTITLE10=Ein guter Film
TTITLE11=Eine Karte von ihm
TTITLE12=Wenn die Musik vorbei ist
TTITLE13=Indigo
EXTD=
EXTT0=
EXTT1=
EXTT2=
EXTT3=
EXTT4=
EXTT5=
EXTT6=
EXTT7=
EXTT8=
EXTT9=
EXTT10=
EXTT11=
EXTT12=
EXTT13=
PLAYORDER=
